<?xml version="1.0" encoding="UTF-8" standalone="no"?>
<!-- Created with Inkscape (http://www.inkscape.org/) -->

<svg
   xmlns:dc="http://purl.org/dc/elements/1.1/"
   xmlns:cc="http://creativecommons.org/ns#"
   xmlns:rdf="http://www.w3.org/1999/02/22-rdf-syntax-ns#"
   xmlns:svg="http://www.w3.org/2000/svg"
   xmlns="http://www.w3.org/2000/svg"
   xmlns:sodipodi="http://sodipodi.sourceforge.net/DTD/sodipodi-0.dtd"
   xmlns:inkscape="http://www.inkscape.org/namespaces/inkscape"
   width="500"
   height="350"
   viewBox="0 0 500.00001 350.00001"
   id="svg2"
   version="1.1"
   inkscape:version="0.91 r13725"
   sodipodi:docname="logo.svg">
  <defs
     id="defs4" />
  <sodipodi:namedview
     id="base"
     pagecolor="#ffffff"
     bordercolor="#666666"
     borderopacity="1.0"
     inkscape:pageopacity="0.0"
     inkscape:pageshadow="2"
     inkscape:zoom="0.83857143"
     inkscape:cx="67.308364"
     inkscape:cy="277.68791"
     inkscape:document-units="px"
     inkscape:current-layer="layer1"
     showgrid="false"
     inkscape:window-width="1366"
     inkscape:window-height="750"
     inkscape:window-x="0"
     inkscape:window-y="18"
     inkscape:window-maximized="1"
     units="px"
     inkscape:snap-smooth-nodes="false"
     inkscape:object-nodes="false" />
  <metadata
     id="metadata7">
    <rdf:RDF>
      <cc:Work
         rdf:about="">
        <dc:format>image/svg+xml</dc:format>
        <dc:type
           rdf:resource="http://purl.org/dc/dcmitype/StillImage" />
        <dc:title></dc:title>
      </cc:Work>
    </rdf:RDF>
  </metadata>
  <g
     inkscape:label="Layer 1"
     inkscape:groupmode="layer"
     id="layer1"
     transform="translate(0,-702.36216)">
    <path
       style="fill:#000000"
       d=""
       id="path4186"
       inkscape:connector-curvature="0"
       inkscape:export-xdpi="360"
       inkscape:export-ydpi="360" />
    <path
       style="fill:#000000"
       d=""
       id="path4184"
       inkscape:connector-curvature="0"
       inkscape:export-xdpi="360"
       inkscape:export-ydpi="360" />
    <path
       inkscape:connector-curvature="0"
       id="path4282"
       d=""
       style="fill:#000000"
       inkscape:export-xdpi="360"
       inkscape:export-ydpi="360" />
    <path
       inkscape:connector-curvature="0"
       id="path4284"
       d=""
       style="fill:#000000"
       inkscape:export-xdpi="360"
       inkscape:export-ydpi="360" />
    <g
       id="g4418"
       transform="translate(23.593437,395.45607)"
       inkscape:export-xdpi="360"
       inkscape:export-ydpi="360">
      <path
         inkscape:connector-curvature="0"
         d="m 237.90826,356.81599 c 4.05386,5.96527 8.63411,14.1851 7.12741,21.39318 -2.38857,2.33251 -5.71916,2.99289 -8.56575,4.43532 -2.36395,-8.86654 -13.54523,-25.67673 -12.47468,-25.38278 l -0.12305,-3.77768 c 5.41153,-2.45282 9.49,0 14.03607,3.33196 z"
         id="path4288"
         style="fill:#f99d1c"
         inkscape:export-xdpi="360"
         inkscape:export-ydpi="360" />
      <path
         inkscape:connector-curvature="0"
         d="m 186.62862,403.28296 c 1.79108,3.22258 -2.03719,5.4252 -4.73748,6.60239 l -3.50423,0.76839 -21.61057,-14.19604 -0.0342,-2.11375 c 2.01804,1.27837 3.31555,-2.64834 5.57697,-2.38309 8.7845,-0.44299 18.68878,4.1646 24.3095,11.3221 z"
         id="path4290"
         style="fill:#f99d1c"
         inkscape:export-xdpi="360"
         inkscape:export-ydpi="360" />
      <path
         inkscape:connector-curvature="0"
         d="m 310.49494,372.92616 c -2.7085,2.2327 -5.60021,-1.08285 -7.25866,-3.48645 l -1.51491,-3.3388 9.76756,-23.98956 2.10965,-0.46213 c -1.0063,2.17664 3.11456,2.78506 3.30187,5.0328 2.12879,8.51653 -0.43888,19.27123 -6.40551,26.24414 z"
         id="path4292"
         style="fill:#f99d1c"
         inkscape:export-xdpi="360"
         inkscape:export-ydpi="360" />
      <path
         inkscape:connector-curvature="0"
         style="fill:#ffd520"
         id="path4296"
         d="m 407.61945,467.27518 c -2.02078,-1.54498 -4.49001,-2.66611 -6.34808,-3.49193 -4.53103,-2.22039 -9.41754,-3.39075 -14.26303,-4.67048 -7.7126,-1.98933 -15.50722,-3.53021 -23.44404,-4.53377 -4.33825,-0.54963 -8.74896,-0.99671 -13.16924,-1.12523 -13.50285,-0.65217 -33.58621,-0.59612 -44.49131,9.21519 -5.59063,5.04511 -7.62782,9.81267 -4.18374,16.14434 10.25702,-17.81237 52.90939,-10.59062 59.52682,-10.04373 9.8906,0.82582 19.43666,2.63877 28.97041,5.54279 2.63467,0.77385 5.20508,1.57916 7.94229,2.12742 2.96964,0.6385 6.2893,0.968 9.17553,-0.24747 1.94285,-0.82308 4.18513,-2.54854 3.4851,-4.88104 -0.50041,-1.56276 -1.74186,-2.92863 -3.20071,-4.03609 z"
         inkscape:export-xdpi="360"
         inkscape:export-ydpi="360" />
      <path
         inkscape:connector-curvature="0"
         style="fill:#ffd520"
         id="path4298"
         d="m 82.255009,463.9063 c 3.72025,-2.50751 8.13506,-3.73803 10.55508,-4.44489 17.888951,-4.83592 36.482021,-8.0544 55.028611,-8.3757 15.5537,-0.28439 38.33873,1.33169 50.61242,12.14654 6.35083,5.53732 8.47962,10.9885 4.29997,17.73719 -1.6735,-2.87804 -5.18456,-5.6631 -7.89716,-7.37625 -8.64095,-5.48946 -20.34178,-6.15531 -30.32125,-6.43696 -9.78669,-0.1709 -19.56792,0.55784 -29.33547,1.33169 -10.72325,0.88871 -21.24688,2.54717 -31.81837,4.61033 -9.883771,1.85944 -17.411781,4.54607 -21.968791,2.34208 -6.5518,-3.28411 -4.4859,-7.78779 0.84496,-11.53403 z"
         inkscape:export-xdpi="360"
         inkscape:export-ydpi="360" />
      <path
         inkscape:connector-curvature="0"
         style="fill:#00a9a1"
         id="path4300"
         d="m 61.414194,467.97658 c 7.612783,13.66144 3.483723,30.01498 -5.988505,41.3986 -14.189199,17.15338 -29.399726,20.22966 -29.399726,20.93516 0,0 -1.911399,53.47269 -5.18867,52.43359 0,0 -11.613322,-0.79573 -16.53538,-5.70822 -3.334694,-3.41537 -1.676234,-72.88612 -2.11375,-94.2246 -0.436149,-18.38388 0.787529,-19.96988 0.787529,-19.96988 9.036078,-14.68278 30.401912,-16.58323 44.46806,-8.48918 5.664468,3.2089 10.771103,7.86845 13.970442,13.62453 z m -18.11044,1.68306 c -5.768379,-6.26605 -15.550969,-3.54798 -17.954574,4.37653 l -0.463493,35.93376 c 0.04102,0.5592 4.238439,-0.8805 9.591176,-5.98577 7.018035,-6.58598 14.656795,-21.17305 10.838099,-31.17714 -0.478534,-1.10336 -1.132073,-2.16844 -2.011208,-3.14738 z"
         inkscape:export-xdpi="360"
         inkscape:export-ydpi="360" />
      <path
         inkscape:connector-curvature="0"
         style="fill:#00a9a1"
         id="path4302"
         d="m 313.99917,543.74346 c -4.45309,-0.87914 -4.01831,3.6724 -11.25647,9.99177 -9.87693,8.63274 -17.34752,2.56767 -17.12603,-10.76973 -0.8012,-1.33853 32.29007,-14.0265 33.41394,-17.90809 3.93491,-14.01966 -0.43205,-34.13038 -17.49928,-37.82602 -3.52064,-0.8053 -7.38856,-1.15941 -11.75278,-0.0561 -21.92914,5.23243 -29.84955,62.27771 -14.72653,81.01708 15.32127,18.70245 42.72757,0.83401 48.49458,-20.23513 -0.001,0 -3.77358,-3.19661 -9.54743,-4.21383 z M 288.7162,507.16162 c 2.53486,-6.24007 9.11128,-6.95377 13.1583,-2.24637 1.79382,2.12196 3.11594,4.88105 3.67241,7.61142 0.80667,4.87831 -0.22013,6.76236 -0.22013,6.76236 -1.65846,1.94558 -18.38115,8.70111 -19.02785,8.32238 -0.90512,-0.50041 -0.27755,-13.72708 2.41727,-20.44979 z"
         inkscape:export-xdpi="360"
         inkscape:export-ydpi="360" />
      <path
         inkscape:connector-curvature="0"
         d="m 202.25478,524.55153 c -0.0998,-6.25238 -0.54689,-12.91904 -2.4118,-19.08938 -1.43424,-4.42029 -3.31556,-8.96772 -6.46021,-12.52118 -2.58408,-3.00108 -7.07272,-5.39375 -10.99122,-5.76427 -8.55892,-0.88187 -18.49327,15.02869 -18.49327,15.02869 -0.94613,-0.3883 -3.52201,-15.47441 -12.42956,-15.47441 -6.9237,0 -15.41698,16.01447 -15.41698,16.01447 0,-0.0492 -0.48264,-13.96908 -0.89007,-17.29557 -0.40197,-3.21028 -15.10115,-3.32376 -16.09104,1.41509 -0.13672,13.67512 -4.55153,73.58477 2.64288,83.10895 1.43833,1.94968 14.87282,10.72462 14.72925,5.04101 -0.10117,-4.15777 0.33225,-40.9857 2.76866,-54.88505 0.8053,-4.75799 2.86164,-14.55152 10.2871,-12.96689 7.24226,1.52857 3.37708,42.09727 5.47033,55.77102 0.37188,2.36806 0.92151,6.8526 2.25047,8.9308 1.24145,1.90593 12.43777,6.19496 12.43777,3.22258 0,-4.0689 0.98031,-45.15851 1.2975,-50.15303 0.25295,-5.75881 -0.27481,-13.56574 4.77714,-17.63464 4.37789,-3.52885 8.39074,1.39184 8.93763,5.88048 1.36177,12.27371 0.19825,24.66499 0.76429,36.95646 0.29396,5.9762 0.77385,19.65132 2.7208,21.56272 1.57916,1.71178 14.09897,7.36394 14.09897,3.00929 0.001,-16.82934 0.34181,-30.40601 0.001,-50.15714 z"
         id="path4304"
         style="fill:#00a9a1"
         inkscape:export-xdpi="360"
         inkscape:export-ydpi="360" />
      <path
         inkscape:connector-curvature="0"
         d="m 260.02744,500.20785 c -10.5332,-18.69561 -35.70953,-15.34041 -49.60614,-1.27426 -1.97703,1.99206 -3.19387,105.80373 1.68991,112.58114 1.39732,1.9319 14.69781,6.18401 14.63081,0.47169 0,-1.62427 0.13946,-23.82413 0.37052,-42.06582 3.26087,1.48892 22.73171,-4.04976 30.89549,-21.56818 6.79791,-14.91384 9.58844,-34.79212 2.01941,-48.14457 z m -23.99503,47.80275 c -4.55154,3.94038 -8.26086,4.04566 -8.26086,4.04566 0,0 0.66038,-46.12652 0.69729,-46.15113 0.14219,-0.74651 3.05168,-3.16106 7.44872,-2.63467 2.71943,0.25431 5.1791,1.82116 7.02761,4.02789 8.30597,10.52363 2.13152,33.01881 -6.91276,40.71225 z"
         id="path4306"
         style="fill:#00a9a1"
         inkscape:export-xdpi="360"
         inkscape:export-ydpi="360" />
      <path
         inkscape:connector-curvature="0"
         d="m 106.76686,496.49443 c -3.39075,-6.98522 -8.985491,-11.65024 -17.912191,-12.03717 -8.85834,-0.38145 -19.213802,2.27236 -23.490524,10.98029 -0.354115,0.77249 -0.556466,1.48892 -0.686354,2.10008 -0.36095,1.77878 -0.213289,3.50287 0.706862,5.29942 0,0 4.116755,6.50122 6.390476,4.74158 2.86983,-2.19988 5.44024,-4.74158 8.33605,-6.86764 3.21984,-2.38173 11.2469,-7.63329 14.34506,-2.01941 1.46295,2.51435 1.33442,7.05769 1.01586,9.83591 -0.0273,0.88461 -0.14219,1.84304 -0.31447,2.66338 -21.65158,1.77742 -44.10847,17.6825 -45.838026,40.07786 -0.705495,9.17691 1.476617,20.52089 11.134789,23.94719 10.289836,3.57532 19.582947,-4.63768 25.545477,-12.12604 3.4974,-4.29587 6.57642,-8.9349 9.73748,-13.47687 0,0 -0.51545,20.80116 -0.28986,23.64365 0.76702,6.18949 10.109361,0.15039 11.588711,-0.5633 3.13645,-1.40006 3.33196,-16.43284 3.39076,-17.95457 0.29122,-13.65325 4.19195,-41.94277 -3.6601,-58.24436 z m -25.507201,52.34882 c -0.88734,1.23188 -3.88022,4.48318 -6.7651,6.43149 -3.08038,2.04676 -5.957054,2.43095 -6.029517,-2.77002 0,-3.75717 1.528572,-7.87119 2.949137,-11.31253 2.82881,-6.89088 10.6918,-16.318 19.10169,-15.35545 0,-0.003 -0.22424,10.8586 -9.25621,23.00651 z"
         id="path4308"
         style="fill:#00a9a1"
         inkscape:export-xdpi="360"
         inkscape:export-ydpi="360" />
      <path
         inkscape:connector-curvature="0"
         d="m 369.73738,491.7843 c -0.47853,-1.05004 -1.17719,-2.06454 -2.20262,-2.84386 -2.86983,-2.09324 -6.75962,-1.56276 -9.92341,-0.42794 -5.87503,1.98933 -10.58654,6.53539 -13.98549,11.69535 -0.69865,0.99945 -1.25512,2.05769 -1.75006,3.10363 0.29805,-4.76072 0.62756,-12.90809 -0.7219,-14.7484 -1.99617,-2.76729 -15.84356,-0.7219 -16.1799,1.4944 -0.10118,1.00355 4.01558,72.98454 4.29723,75.09009 0.68088,4.82499 -0.36779,8.9267 4.81678,10.59199 2.13152,0.59885 9.75251,4.04703 10.01091,-1.2223 0.17364,-2.87941 -0.30489,-23.77765 -0.30489,-23.77765 -0.50451,-12.04674 0.62073,-24.63079 6.8444,-35.2351 3.76674,-6.67349 10.50996,-13.68742 18.40302,-14.96442 0.69593,-0.0493 0.99672,-1.82116 1.11021,-2.45146 0.36095,-2.03035 0.36095,-4.37106 -0.41428,-6.30433 z"
         id="path4310"
         style="fill:#00a9a1"
         inkscape:export-xdpi="360"
         inkscape:export-ydpi="360" />
      <path
         inkscape:connector-curvature="0"
         d="m 411.95497,539.91655 c -3.39759,-5.48946 -8.14875,-9.55152 -12.37215,-14.25756 -5.15312,-5.84631 -12.45827,-14.06888 -8.21163,-21.88949 2.26689,-4.11401 6.57505,-5.68223 10.87775,-3.44407 5.86408,2.98468 4.71287,9.46949 1.9866,13.68743 -0.25157,0.38282 2.88487,0.56193 3.02707,0.56193 1.38364,0 2.67158,-0.17774 3.88432,-1.01449 7.41043,-4.80174 5.21191,-16.78559 -0.75198,-22.5526 -2.53487,-2.4952 -6.04866,-4.3902 -9.35738,-5.108 -15.3117,-3.59036 -33.81864,8.37434 -28.16648,25.39372 2.04812,6.11292 5.50724,11.59965 9.799,16.48206 4.55153,4.99315 12.6155,10.98166 13.53702,18.12821 0.8641,6.59966 -5.7465,11.02677 -11.39866,11.76099 -6.84303,0.6549 -13.07627,-4.17145 -15.36913,-10.48399 -1.17856,-3.33606 -2.46103,-3.71615 -4.51325,-0.84632 -4.11949,5.61661 -1.8362,14.64722 2.82471,20.2365 0.41291,0.44024 0.76702,0.85452 1.17993,1.24691 8.62591,8.75033 25.07242,12.41043 35.95974,5.80256 12.13834,-7.31609 14.54331,-21.78694 7.06452,-33.70379 z"
         id="path4312"
         style="fill:#00a9a1"
         inkscape:export-xdpi="360"
         inkscape:export-ydpi="360" />
      <path
         inkscape:connector-curvature="0"
         d="m 428.49171,569.23698 c -0.0328,-6.04866 3.62728,-7.05358 4.51873,-7.05358 0.1709,0 0.48673,0.25431 0.94612,0.31173 1.91277,0.2461 5.40333,0.91741 5.40333,5.46622 0,5.59747 -2.40634,7.66337 -5.57013,7.66337 -3.97319,10e-4 -5.29805,-4.67185 -5.29805,-6.38774 z m 1.66394,-4.03882 c 0,0.31036 0.0984,0.71233 0.14765,1.04594 0,0.18594 0.26251,1.90046 0.3131,2.51981 0.0246,0.63303 0.3131,3.57807 0.3131,4.30818 0,0.7137 0.77659,0.9092 1.17035,0.9092 0.38009,0 0.76566,-0.28712 0.76566,-0.59885 0,-0.31172 -0.41154,-2.00436 -0.50724,-3.37297 -0.0957,-1.06508 -0.29123,-4.20563 -0.29123,-4.20563 0.0752,-0.026 2.1616,-0.0943 2.76319,-0.0943 0.11759,0 0.33908,0.0943 0.33908,0.33087 0,0.2502 -1.5026,2.27918 -2.42002,2.85479 -0.34318,0.34044 -0.3924,0.70003 -0.36915,0.96527 0.0259,0.24747 1.06234,1.01723 2.68389,1.33306 1.79655,0.34591 2.93546,0.85589 3.32375,0.85589 0.33498,0 0.54963,-0.59065 0.54963,-0.87914 0,-0.16953 -0.0423,-0.75197 -0.62209,-0.80119 -0.58518,-0.0383 -1.64889,-0.24747 -2.51982,-0.40197 -0.50725,-0.0834 -1.2606,-0.37052 -1.55045,-0.59749 0.84769,-0.71096 1.93327,-2.08367 2.34619,-2.6374 0.21875,-0.30353 0.41427,-0.78479 0.41427,-1.1977 0,-0.39923 -0.61116,-0.67268 -0.99535,-0.73968 -0.4594,-0.0943 -1.33442,-0.15176 -1.95652,-0.15176 -0.63167,0 -1.5026,0 -1.89089,0 -0.43751,-0.0492 -0.80257,-0.026 -1.14028,-0.026 -0.33361,0 -0.55236,0.0834 -0.86682,0.58108 z m -3.17337,4.10308 c 0,2.19169 1.52857,7.63055 6.51489,7.63055 5.0123,0 7.16843,-3.00929 7.16843,-9.30678 0,-4.97265 -4.3861,-6.19769 -6.66118,-6.5313 -0.57971,-0.0902 -1.06372,-0.25158 -1.25376,-0.25158 -0.9475,0 -5.76838,1.70222 -5.76838,8.45911 z"
         id="path4314"
         style="fill:#00a9a1"
         inkscape:export-xdpi="360"
         inkscape:export-ydpi="360" />
      <path
         style="opacity:1;fill:none;fill-opacity:1;fill-rule:evenodd;stroke:#ffd520;stroke-width:8.05093765;stroke-linecap:butt;stroke-linejoin:round;stroke-miterlimit:4;stroke-dasharray:none;stroke-dashoffset:0;stroke-opacity:1"
         d="m 261.73073,390.62235 c -15.46146,-1.5e-4 -27.99549,12.53387 -27.99534,27.99533 5.16127,27.64674 30.73344,37.1339 15.61591,58.27954 24.38113,-15.78943 40.1712,-34.86385 40.37476,-58.27954 1.6e-4,-15.46146 -12.53388,-27.99548 -27.99533,-27.99533 z"
         id="path4356"
         inkscape:connector-curvature="0"
         sodipodi:nodetypes="ccccc" />
      <g
         style="fill:#00a9a1;fill-opacity:1"
         transform="translate(-149.24886,10.741184)"
         id="g4405">
        <circle
           r="2.0868824"
           cy="407.5155"
           cx="400.97958"
           id="path4361"
           style="opacity:1;fill:#00a9a1;fill-opacity:1;fill-rule:evenodd;stroke:none;stroke-width:9.69999981;stroke-linecap:butt;stroke-linejoin:round;stroke-miterlimit:4;stroke-dasharray:none;stroke-dashoffset:0;stroke-opacity:1" />
        <circle
           style="opacity:1;fill:#00a9a1;fill-opacity:1;fill-rule:evenodd;stroke:none;stroke-width:9.69999981;stroke-linecap:butt;stroke-linejoin:round;stroke-miterlimit:4;stroke-dasharray:none;stroke-dashoffset:0;stroke-opacity:1"
           id="circle4363"
           cx="410.97958"
           cy="407.5155"
           r="2.0868824" />
        <circle
           r="2.0868824"
           cy="407.5155"
           cx="420.97958"
           id="circle4365"
           style="opacity:1;fill:#00a9a1;fill-opacity:1;fill-rule:evenodd;stroke:none;stroke-width:9.69999981;stroke-linecap:butt;stroke-linejoin:round;stroke-miterlimit:4;stroke-dasharray:none;stroke-dashoffset:0;stroke-opacity:1" />
      </g>
      <text
         sodipodi:linespacing="125%"
         id="text4410"
         y="614.95142"
         x="241.14212"
         style="font-style:normal;font-weight:normal;font-size:36.05767822px;line-height:125%;font-family:sans-serif;letter-spacing:0px;word-spacing:0px;fill:#ffd520;fill-opacity:1;stroke:none;stroke-width:1px;stroke-linecap:butt;stroke-linejoin:miter;stroke-opacity:1"
         xml:space="preserve"><tspan
           style="font-style:normal;font-variant:normal;font-weight:bold;font-stretch:normal;font-family:Lemonada;-inkscape-font-specification:'Lemonada Bold';fill:#ffd520;fill-opacity:1"
           y="614.95142"
           x="241.14212"
           id="tspan4412"
           sodipodi:role="line">Baby skill</tspan></text>
    </g>
    <text
       xml:space="preserve"
       style="font-style:normal;font-weight:normal;font-size:40px;line-height:125%;font-family:sans-serif;letter-spacing:0px;word-spacing:0px;fill:#000000;fill-opacity:1;stroke:none;stroke-width:1px;stroke-linecap:butt;stroke-linejoin:miter;stroke-opacity:1"
       x="-404.25894"
       y="787.62622"
       id="text4414"
       sodipodi:linespacing="125%"
       inkscape:export-xdpi="360"
       inkscape:export-ydpi="360"><tspan
         sodipodi:role="line"
         id="tspan4416"
         x="-404.25894"
         y="787.62622" /></text>
  </g>
</svg>
