<?xml version="1.0" encoding="UTF-8" standalone="no"?>
<!-- Created with Inkscape (http://www.inkscape.org/) -->

<svg
   xmlns:dc="http://purl.org/dc/elements/1.1/"
   xmlns:cc="http://creativecommons.org/ns#"
   xmlns:rdf="http://www.w3.org/1999/02/22-rdf-syntax-ns#"
   xmlns:svg="http://www.w3.org/2000/svg"
   xmlns="http://www.w3.org/2000/svg"
   xmlns:xlink="http://www.w3.org/1999/xlink"
   xmlns:sodipodi="http://sodipodi.sourceforge.net/DTD/sodipodi-0.dtd"
   xmlns:inkscape="http://www.inkscape.org/namespaces/inkscape"
   width="500"
   height="350"
   viewBox="0 0 500.00001 350.00001"
   id="svg2"
   version="1.1"
   inkscape:version="0.91 r13725"
   sodipodi:docname="logo.svg">
  <defs
     id="defs4">
    <linearGradient
       id="linearGradient4334"
       inkscape:collect="always">
      <stop
         id="stop4336"
         offset="0"
         style="stop-color:#ffd520;stop-opacity:1" />
      <stop
         id="stop4338"
         offset="1"
         style="stop-color:#ffd520;stop-opacity:1" />
    </linearGradient>
    <linearGradient
       inkscape:collect="always"
       id="linearGradient4221">
      <stop
         style="stop-color:#0395fc;stop-opacity:1"
         offset="0"
         id="stop4223" />
      <stop
         style="stop-color:#23c8fd;stop-opacity:1"
         offset="1"
         id="stop4225" />
    </linearGradient>
    <linearGradient
       inkscape:collect="always"
       xlink:href="#linearGradient4221"
       id="linearGradient4227"
       x1="161.6244"
       y1="968.96771"
       x2="161.6244"
       y2="724.00317"
       gradientUnits="userSpaceOnUse"
       gradientTransform="matrix(0.21648233,0,0,0.21648233,434.01418,613.09838)" />
    <linearGradient
       inkscape:collect="always"
       xlink:href="#linearGradient4334"
       id="linearGradient4318"
       gradientUnits="userSpaceOnUse"
       gradientTransform="matrix(0.35610059,0,0,0.37399561,220.60596,54.063564)"
       x1="161.6244"
       y1="968.96771"
       x2="161.6244"
       y2="724.00317" />
  </defs>
  <sodipodi:namedview
     id="base"
     pagecolor="#ffffff"
     bordercolor="#666666"
     borderopacity="1.0"
     inkscape:pageopacity="0.0"
     inkscape:pageshadow="2"
     inkscape:zoom="0.83857143"
     inkscape:cx="242.32473"
     inkscape:cy="160.41521"
     inkscape:document-units="px"
     inkscape:current-layer="g4244"
     showgrid="false"
     inkscape:window-width="1366"
     inkscape:window-height="750"
     inkscape:window-x="0"
     inkscape:window-y="18"
     inkscape:window-maximized="1"
     units="px" />
  <metadata
     id="metadata7">
    <rdf:RDF>
      <cc:Work
         rdf:about="">
        <dc:format>image/svg+xml</dc:format>
        <dc:type
           rdf:resource="http://purl.org/dc/dcmitype/StillImage" />
        <dc:title></dc:title>
      </cc:Work>
    </rdf:RDF>
  </metadata>
  <g
     inkscape:label="Layer 1"
     inkscape:groupmode="layer"
     id="layer1"
     transform="translate(0,-702.36216)">
    <g
       id="g4244"
       transform="translate(1.3552805e-6,67.45558)">
      <path
         inkscape:connector-curvature="0"
         id="path4186"
         d=""
         style="fill:#000000" />
      <path
         inkscape:connector-curvature="0"
         id="path4184"
         d=""
         style="fill:#000000" />
      <g
         transform="matrix(0.71896954,0,0,0.71896954,30.714295,665.75765)"
         id="g4168"
         inkscape:export-xdpi="360"
         inkscape:export-ydpi="360">
        <path
           inkscape:connector-curvature="0"
           d="m 327.98895,21.096004 c 5.63843,8.296959 12.00901,19.729762 9.91337,29.755333 -3.32221,3.244239 -7.95466,4.162742 -11.91392,6.168997 -3.28798,-12.332289 -18.83979,-35.713246 -17.35078,-35.304388 l -0.17115,-5.254297 c 7.52678,-3.411585 13.19945,0 19.52248,4.634355 z"
           id="path14-7-5"
           style="fill:#f99d1c" />
        <path
           inkscape:connector-curvature="0"
           d="m 256.66515,85.72595 c 2.49118,4.482221 -2.83348,7.545801 -6.58927,9.183134 l -4.87396,1.068735 -30.0577,-19.744975 -0.0475,-2.939972 c 2.80685,1.778055 4.61153,-3.683523 7.75688,-3.3146 12.21819,-0.616139 25.99385,5.792468 33.81159,15.747678 z"
           id="path16-4-2"
           style="fill:#f99d1c" />
        <path
           inkscape:connector-curvature="0"
           d="m 428.94828,43.503308 c -3.7672,3.105417 -7.78922,-1.506118 -10.09593,-4.849243 L 416.7453,34.010202 430.33079,0.64360944 433.26506,8.470758e-4 C 431.86543,3.0282958 437.59705,3.8745362 437.85757,7.0008715 440.81846,18.846335 437.24714,33.804823 428.94828,43.503308 Z"
           id="path18-0-7"
           style="fill:#f99d1c" />
        <path
           inkscape:connector-curvature="0"
           style="fill:#ffd520"
           id="path20-9-6"
           d="m 401.07369,51.629118 c -8.04213,-5.330364 -17.78056,-6.941073 -26.48257,-1.899763 -13.35348,7.781609 -22.22665,24.512447 -25.73331,39.524181 -0.4583,2.004354 -3.4287,12.860954 -1.44907,14.591464 -13.0245,-11.252143 -24.47061,-24.531461 -42.88062,-22.996818 -22.83518,2.004354 -39.69913,22.692558 -34.20332,46.874108 1.50421,6.7376 3.63408,12.21819 7.19779,18.01637 9.13179,14.79494 25.17803,33.98653 40.89719,41.63502 34.22994,16.50644 44.07105,12.63085 48.3574,8.16575 0.1084,-0.15784 -50.69645,-13.18994 -70.09152,-72.95353 -16.37333,-50.293304 55.8918,21.35378 54.4085,21.52683 4.3377,-0.4564 8.88458,-0.55148 11.6515,-4.60583 0,0 -0.44309,-15.06308 -0.1122,-23.08049 0.47732,-10.57515 4.4594,-48.528559 22.53662,-39.276964 10.65502,5.412135 12.71832,18.440434 12.56049,29.686874 -0.21489,25.54505 -6.75852,50.69075 -16.89438,73.75032 -2.92476,6.71858 -6.19182,13.18994 -9.20786,19.90092 -0.0514,0.14833 -2.07662,4.40235 -1.07444,4.54307 11.48415,-0.6922 23.78981,-20.64066 28.86916,-30.61298 8.73814,-17.05793 15.48334,-36.85044 18.41951,-55.99639 2.2782,-15.34073 4.27304,-33.855325 -1.87504,-48.600827 -2.92476,-7.325208 -8.31407,-14.034278 -14.89383,-18.191315 z" />
        <path
           inkscape:connector-curvature="0"
           style="fill:#ffd520"
           id="path22-4-1"
           d="m 564.03677,174.73142 c -2.81066,-2.14888 -6.24506,-3.70824 -8.82942,-4.85685 -6.30212,-3.0883 -13.09866,-4.71612 -19.83816,-6.49608 -10.72729,-2.76692 -21.56867,-4.9101 -32.60783,-6.30592 -6.03398,-0.76447 -12.16875,-1.38631 -18.31683,-1.56507 -18.78083,-0.90709 -46.71437,-0.82912 -61.88204,12.81722 -7.7759,7.01714 -10.60938,13.64824 -5.81909,22.45484 14.26628,-24.77487 73.59059,-14.73028 82.79464,-13.96962 13.75664,1.14861 27.03405,3.67021 40.29435,7.70935 3.66451,1.07634 7.23964,2.19642 11.04677,2.95898 4.13041,0.88808 8.74765,1.34638 12.76206,-0.3442 2.70227,-1.1448 5.821,-3.5447 4.84735,-6.78894 -0.69601,-2.1736 -2.42272,-4.07336 -4.4518,-5.61371 z" />
        <path
           inkscape:connector-curvature="0"
           style="fill:#ffd520"
           id="path24-8-4"
           d="m 111.49403,170.04572 c 5.17443,-3.48765 11.3149,-5.19915 14.68085,-6.18231 24.88137,-6.72618 50.74209,-11.2027 76.53816,-11.64959 21.63333,-0.39555 53.32456,1.85222 70.39579,16.89438 8.83323,7.70174 11.79412,15.28367 5.98074,24.67029 -2.32764,-4.00301 -7.21111,-7.87669 -10.98401,-10.25948 -12.01852,-7.63518 -28.29296,-8.56129 -42.1732,-8.95303 -13.61211,-0.23771 -27.21662,0.77588 -40.8021,1.85222 -14.91475,1.23608 -29.55186,3.5428 -44.25552,6.41241 -13.74713,2.58626 -24.21769,6.32303 -30.55594,3.25755 -9.11277,-4.5678 -6.23935,-10.83188 1.17523,-16.04244 z" />
        <path
           inkscape:connector-curvature="0"
           style="fill:#00a9a1"
           id="path30-8-2"
           d="m 82.506972,175.70698 c 10.588464,19.00142 4.845439,41.74722 -8.329288,57.58047 -19.735467,23.85828 -40.891477,28.13702 -40.891477,29.11828 0,0 -2.658526,74.37407 -7.216814,72.92881 0,0 -16.1527321,-1.10677 -22.9987217,-7.93945 C -1.5674867,322.64473 0.73923144,226.01929 0.13069903,196.34003 -0.47593173,170.77026 1.2260574,168.56433 1.2260574,168.56433 13.794153,148.14236 43.511454,145.49905 63.075771,156.7569 c 7.878593,4.4632 14.981307,10.94407 19.431201,18.95008 z m -25.189439,2.34094 c -8.02312,-8.71532 -21.629524,-4.93481 -24.972649,6.08723 l -0.644664,49.97953 c 0.05705,0.77778 5.895158,-1.22467 13.340171,-8.32549 9.761241,-9.16031 20.385836,-29.44916 15.074489,-43.36364 -0.665582,-1.53464 -1.574577,-3.01604 -2.797347,-4.37763 z" />
        <path
           inkscape:connector-curvature="0"
           style="fill:#00a9a1"
           id="path32-2-3"
           d="m 433.82224,281.08958 c -6.19372,-1.22277 -5.58899,5.10787 -15.65639,13.89736 -13.73762,12.0071 -24.12831,3.57132 -23.82025,-14.97941 -1.11437,-1.86173 44.9116,-19.50917 46.47477,-24.90799 5.47298,-19.49966 -0.60093,-47.47124 -24.3394,-52.61143 -4.89678,-1.12008 -10.27659,-1.61261 -16.3467,-0.078 -30.50079,7.27767 -41.51712,86.62078 -20.48282,112.68499 21.31004,26.01286 59.42889,1.16001 67.45011,-28.14463 -0.002,0 -5.24859,-4.44609 -13.27932,-5.86092 z m -35.16556,-50.88092 c 3.52568,-8.67919 12.67268,-9.67186 18.30161,-3.12443 2.49498,2.95138 4.33389,6.78894 5.10787,10.58656 1.12198,6.78514 -0.30617,9.40563 -0.30617,9.40563 -2.30672,2.70607 -25.56597,12.10219 -26.46545,11.57543 -1.25891,-0.69601 -0.38604,-19.09271 3.36214,-28.44319 z" />
        <path
           inkscape:connector-curvature="0"
           d="m 278.39926,254.39592 c -0.13882,-8.69631 -0.76066,-17.96882 -3.35453,-26.55103 -1.99485,-6.14808 -4.61154,-12.47301 -8.98537,-17.41544 -3.59414,-4.17415 -9.8373,-7.50206 -15.28747,-8.01741 -11.90442,-1.22657 -25.72191,20.90309 -25.72191,20.90309 -1.31595,-0.54007 -4.89868,-21.52303 -17.28802,-21.52303 -9.63003,0 -21.44316,22.27419 -21.44316,22.27419 0,-0.0685 -0.67129,-19.4293 -1.23798,-24.05605 -0.55909,-4.46511 -21.00388,-4.62295 -22.38069,1.96822 -0.19016,19.02044 -6.33063,102.34755 3.67592,115.59454 2.00055,2.71177 20.6863,14.91665 20.48662,7.01143 -0.14072,-5.78296 0.46211,-57.00617 3.85087,-76.33849 1.12008,-6.61779 3.98019,-20.23941 14.30812,-18.03538 10.07311,2.12606 4.69711,58.55223 7.60856,77.57077 0.51725,3.29368 1.28172,9.53114 3.13014,12.42167 1.72671,2.65092 17.29943,8.61644 17.29943,4.48222 0,-5.65935 1.3635,-62.81005 1.80468,-69.75683 0.35181,-8.00981 -0.38223,-18.86831 6.64442,-24.52766 6.08912,-4.9082 11.67051,1.93589 12.43117,8.17905 1.89406,17.07124 0.27574,34.30602 1.06303,51.40198 0.40886,8.31217 1.07634,27.33261 3.78431,29.99114 2.19642,2.38088 19.60996,10.24236 19.60996,4.18556 0.002,-23.40758 0.47542,-42.2911 0.002,-69.76254 z"
           id="path34-4-2"
           style="fill:#00a9a1" />
        <path
           inkscape:connector-curvature="0"
           d="m 358.75407,220.5368 c -14.65042,-26.00335 -49.66766,-21.33667 -68.99617,-1.77235 -2.74981,2.77072 -4.44229,147.16025 2.35046,156.5868 1.9435,2.68705 20.44288,8.60122 20.3497,0.65607 0,-2.25917 0.19397,-33.13649 0.51535,-58.50849 4.53547,2.07091 31.61706,-5.63273 42.9719,-29.99874 9.45507,-20.74335 13.33637,-48.39164 2.80876,-66.96329 z m -33.3742,66.48787 c -6.33064,5.48059 -11.48986,5.62702 -11.48986,5.62702 0,0 0.91851,-64.15643 0.96985,-64.19066 0.19777,-1.03831 4.24451,-4.39665 10.36027,-3.66451 3.7824,0.35371 7.2035,2.53302 9.77455,5.60231 11.55261,14.6371 2.96469,45.92518 -9.61481,56.62584 z"
           id="path36-5-2"
           style="fill:#00a9a1" />
        <path
           inkscape:connector-curvature="0"
           d="m 145.58706,215.37188 c -4.71612,-9.7156 -12.49773,-16.20408 -24.9137,-16.74225 -12.32088,-0.53056 -26.724077,3.16057 -32.672482,15.27226 -0.492531,1.07444 -0.773977,2.07091 -0.954635,2.92096 -0.502039,2.47406 -0.29666,4.87206 0.98316,7.37085 0,0 5.72591,9.04241 8.888377,6.59497 3.99159,-3.05978 7.56672,-6.59497 11.59444,-9.55206 4.47842,-3.3127 15.64309,-10.61699 19.95226,-2.80876 2.03478,3.49716 1.85602,9.81639 1.41294,13.68057 -0.038,1.23038 -0.19778,2.56344 -0.43739,3.70444 -30.114744,2.47217 -61.349572,24.59422 -63.755176,55.74347 -0.981259,12.76397 2.053796,28.54208 15.48715,33.30765 14.311921,4.97285 27.237526,-6.45045 35.530686,-16.86586 4.86446,-5.97503 9.147,-12.42737 13.54365,-18.7447 0,0 -0.71693,28.93191 -0.40315,32.88547 1.06683,8.60883 14.0609,0.20918 16.1185,-0.78348 4.36242,-1.94731 4.63435,-22.8561 4.71613,-24.97265 0.40505,-18.99002 5.8305,-58.33734 -5.09076,-81.01088 z m -35.47744,72.8109 c -1.23418,1.7134 -5.39692,6.23556 -9.40943,8.94543 -4.284449,2.84679 -8.28555,3.38116 -8.386338,-3.85277 0,-5.22577 2.12606,-10.94788 4.101889,-15.73437 3.934539,-9.58438 14.871009,-22.69636 26.568149,-21.35758 0,-0.004 -0.31188,15.10301 -12.87427,31.99929 z"
           id="path38-5-1"
           style="fill:#00a9a1" />
        <path
           inkscape:connector-curvature="0"
           d="m 511.34737,208.82065 c -0.66558,-1.46048 -1.63733,-2.87152 -3.06358,-3.95546 -3.99159,-2.91145 -9.40182,-2.17361 -13.80227,-0.59522 -8.17145,2.76692 -14.72459,9.08995 -19.45212,16.26683 -0.97175,1.39011 -1.74573,2.862 -2.43413,4.31677 0.41456,-6.62159 0.87286,-17.9536 -1.00408,-20.51324 -2.77643,-3.84897 -22.03648,-1.00408 -22.50429,2.07852 -0.14072,1.39582 5.58519,101.51271 5.97693,104.44127 0.94703,6.71098 -0.51155,12.41597 6.69956,14.73219 2.96469,0.83293 13.56457,5.62893 13.92398,-1.70008 0.24151,-4.00491 -0.42407,-33.07184 -0.42407,-33.07184 -0.70171,-16.75556 0.86336,-34.25847 9.51973,-49.00778 5.23908,-9.28202 14.61809,-19.03755 25.59639,-20.81371 0.96795,-0.0685 1.38632,-2.53301 1.54416,-3.40968 0.50204,-2.82397 0.50204,-6.07962 -0.57621,-8.76857 z"
           id="path40-1-6"
           style="fill:#00a9a1" />
        <path
           inkscape:connector-curvature="0"
           d="m 570.06695,275.76682 c -4.72564,-7.63518 -11.33392,-13.28502 -17.20816,-19.83055 -7.16737,-8.13151 -17.32796,-19.56812 -11.42139,-30.44564 3.15296,-5.7221 9.1451,-7.90331 15.12964,-4.79029 8.15623,4.15133 6.55503,13.17092 2.76311,19.03756 -0.3499,0.53246 4.01251,0.78158 4.21029,0.78158 1.92448,0 3.71585,-0.24722 5.40262,-1.41103 10.30702,-6.67865 7.24915,-23.34673 -1.04591,-31.36795 -3.52569,-3.47053 -8.41296,-6.10624 -13.01499,-7.10461 -21.29673,-4.99377 -47.03765,11.64769 -39.17617,35.3196 2.84869,8.50234 7.6599,16.13371 13.62922,22.92456 6.33064,6.94487 17.54665,15.27416 18.82837,25.21416 1.20185,9.17933 -7.99269,15.33691 -15.85417,16.35811 -9.51783,0.91089 -18.18751,-5.80198 -21.3766,-14.58196 -1.63924,-4.64006 -3.423,-5.16872 -6.27739,-1.17713 -5.72972,7.81203 -2.55394,20.37252 3.92883,28.14653 0.57431,0.61233 1.06684,1.18854 1.64114,1.73431 11.9976,12.17065 34.87271,17.26141 50.01566,8.07066 16.88297,-10.1758 20.228,-30.30301 9.8259,-46.87791 z"
           id="path42-7-8"
           style="fill:#00a9a1" />
        <path
           inkscape:connector-curvature="0"
           d="m 593.06757,316.548 c -0.0456,-8.41296 5.04511,-9.81068 6.285,-9.81068 0.23771,0 0.67699,0.35371 1.31595,0.43358 2.66043,0.3423 7.51538,1.27601 7.51538,7.60285 0,7.78541 -3.34693,10.65882 -7.74738,10.65882 -5.52624,0.002 -7.36895,-6.49798 -7.36895,-8.88457 z m 2.31433,-5.61751 c 0,0.43167 0.13691,0.99076 0.20537,1.45477 0,0.25862 0.36512,2.64331 0.43549,3.50476 0.0342,0.88047 0.43548,4.97666 0.43548,5.99215 0,0.99267 1.08014,1.2646 1.62782,1.2646 0.52866,0 1.06493,-0.39935 1.06493,-0.83293 0,-0.43357 -0.5724,-2.78783 -0.70551,-4.6914 -0.13312,-1.4814 -0.40506,-5.84952 -0.40506,-5.84952 0.10459,-0.0361 3.00653,-0.13121 3.84326,-0.13121 0.16355,0 0.47162,0.13121 0.47162,0.4602 0,0.348 -2.08993,3.17007 -3.36595,3.97067 -0.47732,0.47352 -0.54578,0.97366 -0.51345,1.34258 0.0361,0.3442 1.47759,1.41484 3.73297,1.85412 2.49878,0.48112 4.08287,1.19044 4.62294,1.19044 0.46591,0 0.76447,-0.82152 0.76447,-1.22277 0,-0.2358 -0.0589,-1.04591 -0.86526,-1.11437 -0.81391,-0.0533 -2.2934,-0.3442 -3.50476,-0.55909 -0.70552,-0.116 -1.75334,-0.51535 -2.15649,-0.83103 1.17903,-0.98886 2.68895,-2.89813 3.26326,-3.66831 0.30426,-0.42217 0.5762,-1.09155 0.5762,-1.66586 0,-0.55528 -0.85004,-0.93561 -1.38441,-1.0288 -0.63896,-0.13121 -1.85602,-0.21108 -2.72128,-0.21108 -0.87857,0 -2.08993,0 -2.63,0 -0.60853,-0.0685 -1.11628,-0.0361 -1.58599,-0.0361 -0.46401,0 -0.76827,0.116 -1.20565,0.80821 z m -4.41377,5.70689 c 0,3.04837 2.12606,10.61318 9.06143,10.61318 6.9715,0 9.97042,-4.18556 9.97042,-12.94462 0,-6.91635 -6.10053,-8.62024 -9.2649,-9.08425 -0.80631,-0.12551 -1.4795,-0.34991 -1.74383,-0.34991 -1.31785,0 -8.02312,2.36758 -8.02312,11.7656 z"
           id="path44-1-5"
           style="fill:#00a9a1" />
      </g>
      <path
         inkscape:connector-curvature="0"
         id="rect4190"
         d="m 469.20787,769.93676 c -1.39628,0.002 -2.79971,0.14363 -4.27806,0.42409 -5.45441,1.03476 -9.79296,3.22728 -13.61852,6.88219 -4.14889,3.96384 -6.59364,8.52855 -7.73501,14.44301 -0.55562,2.87915 -0.55796,5.42514 -0.008,8.47917 1.62418,9.01995 7.12269,15.99496 15.54191,19.71554 1.44242,0.63743 5.30087,1.77372 6.0226,1.77372 0.24256,0 0.30105,-0.58231 0.30105,-2.99862 0,-2.76011 -0.0394,-3.05691 -0.49216,-3.72882 -0.52951,-0.78575 -0.54214,-0.79339 -3.62101,-2.21473 -4.81024,-2.22061 -8.49881,-6.53268 -9.96664,-11.65114 -0.59219,-2.06502 -0.79438,-5.88163 -0.43127,-8.14218 0.59215,-3.68653 2.40236,-7.21604 5.08902,-9.92268 3.49471,-3.52068 7.32381,-5.20568 12.34457,-5.43193 2.1071,-0.095 2.99922,-0.034 4.72329,0.32388 7.0444,1.46215 12.79355,7.2113 14.2557,14.2557 0.55976,2.69687 0.45253,6.45825 -0.25496,8.9447 -0.62315,2.19002 -1.88771,4.83317 -3.28318,6.86189 -1.38777,2.01757 -4.85611,5.6737 -7.09867,7.48301 -2.12082,1.71108 -5.90409,4.1961 -8.26988,5.43237 -1.1839,0.61866 -1.74291,1.01582 -1.51538,1.07606 0.92644,0.24534 3.98057,0.10485 6.1892,-0.28456 11.67947,-2.05914 19.98878,-10.48151 21.88713,-22.18563 0.43115,-2.65828 0.39951,-4.78595 -0.11332,-7.63396 -1.01945,-5.66152 -3.36282,-10.18497 -7.33419,-14.15634 -3.94176,-3.94176 -8.36068,-6.2397 -14.1001,-7.33333 -1.44891,-0.27609 -2.8378,-0.41349 -4.23409,-0.41141 z"
         style="opacity:1;fill:url(#linearGradient4227);fill-opacity:1;fill-rule:evenodd;stroke:none;stroke-width:5;stroke-linecap:butt;stroke-linejoin:round;stroke-miterlimit:4;stroke-dasharray:none;stroke-dashoffset:0;stroke-opacity:1"
         inkscape:export-xdpi="360"
         inkscape:export-ydpi="360" />
      <path
         style="fill:#000000"
         d=""
         id="path4282"
         inkscape:connector-curvature="0" />
      <path
         style="fill:#000000"
         d=""
         id="path4284"
         inkscape:connector-curvature="0" />
      <path
         inkscape:connector-curvature="0"
         d="m 266.52836,294.72668 c 4.05386,5.96527 8.63411,14.1851 7.12741,21.39318 -2.38857,2.33251 -5.71916,2.99289 -8.56575,4.43532 -2.36395,-8.86654 -13.54523,-25.67673 -12.47468,-25.38278 l -0.12305,-3.77768 c 5.41153,-2.45282 9.49,0 14.03607,3.33196 z"
         id="path4288"
         style="fill:#f99d1c"
         inkscape:export-xdpi="360"
         inkscape:export-ydpi="360" />
      <path
         inkscape:connector-curvature="0"
         d="m 215.24872,341.19365 c 1.79108,3.22258 -2.03719,5.4252 -4.73748,6.60239 l -3.50423,0.76839 -21.61057,-14.19604 -0.0342,-2.11375 c 2.01804,1.27837 3.31555,-2.64834 5.57697,-2.38309 8.7845,-0.44299 18.68878,4.1646 24.3095,11.3221 z"
         id="path4290"
         style="fill:#f99d1c"
         inkscape:export-xdpi="360"
         inkscape:export-ydpi="360" />
      <path
         inkscape:connector-curvature="0"
         d="m 339.11504,310.83685 c -2.7085,2.2327 -5.60021,-1.08285 -7.25866,-3.48645 l -1.51491,-3.3388 9.76756,-23.98956 2.10965,-0.46213 c -1.0063,2.17664 3.11456,2.78506 3.30187,5.0328 2.12879,8.51653 -0.43888,19.27123 -6.40551,26.24414 z"
         id="path4292"
         style="fill:#f99d1c"
         inkscape:export-xdpi="360"
         inkscape:export-ydpi="360" />
      <path
         inkscape:connector-curvature="0"
         style="fill:#ffd520"
         id="path4296"
         d="m 436.23955,405.18587 c -2.02078,-1.54498 -4.49001,-2.66611 -6.34808,-3.49193 -4.53103,-2.22039 -9.41754,-3.39075 -14.26303,-4.67048 -7.7126,-1.98933 -15.50722,-3.53021 -23.44404,-4.53377 -4.33825,-0.54963 -8.74896,-0.99671 -13.16924,-1.12523 -13.50285,-0.65217 -33.58621,-0.59612 -44.49131,9.21519 -5.59063,5.04511 -7.62782,9.81267 -4.18374,16.14434 10.25702,-17.81237 52.90939,-10.59062 59.52682,-10.04373 9.8906,0.82582 19.43666,2.63877 28.97041,5.54279 2.63467,0.77385 5.20508,1.57916 7.94229,2.12742 2.96964,0.6385 6.2893,0.968 9.17553,-0.24747 1.94285,-0.82308 4.18513,-2.54854 3.4851,-4.88104 -0.50041,-1.56276 -1.74186,-2.92863 -3.20071,-4.03609 z"
         inkscape:export-xdpi="360"
         inkscape:export-ydpi="360" />
      <path
         inkscape:connector-curvature="0"
         style="fill:#ffd520"
         id="path4298"
         d="m 110.87511,401.81699 c 3.72025,-2.50751 8.13506,-3.73803 10.55508,-4.44489 17.88895,-4.83592 36.48202,-8.0544 55.02861,-8.3757 15.5537,-0.28439 38.33873,1.33169 50.61242,12.14654 6.35083,5.53732 8.47962,10.9885 4.29997,17.73719 -1.6735,-2.87804 -5.18456,-5.6631 -7.89716,-7.37625 -8.64095,-5.48946 -20.34178,-6.15531 -30.32125,-6.43696 -9.78669,-0.1709 -19.56792,0.55784 -29.33547,1.33169 -10.72325,0.88871 -21.24688,2.54717 -31.81837,4.61033 -9.88377,1.85944 -17.41178,4.54607 -21.96879,2.34208 -6.5518,-3.28411 -4.4859,-7.78779 0.84496,-11.53403 z"
         inkscape:export-xdpi="360"
         inkscape:export-ydpi="360" />
      <path
         inkscape:connector-curvature="0"
         style="fill:#00a9a1"
         id="path4300"
         d="m 90.034295,405.88727 c 7.612783,13.66144 3.483723,30.01498 -5.988505,41.3986 -14.189199,17.15338 -29.399726,20.22966 -29.399726,20.93516 0,0 -1.911399,53.47269 -5.18867,52.43359 0,0 -11.613322,-0.79573 -16.53538,-5.70822 -3.334694,-3.41537 -1.676234,-72.88612 -2.11375,-94.2246 -0.436149,-18.38388 0.787529,-19.96988 0.787529,-19.96988 9.036078,-14.68278 30.401912,-16.58323 44.46806,-8.48918 5.664468,3.2089 10.771103,7.86845 13.970442,13.62453 z m -18.11044,1.68306 c -5.768379,-6.26605 -15.550969,-3.54798 -17.954574,4.37653 l -0.463493,35.93376 c 0.04102,0.5592 4.238439,-0.8805 9.591176,-5.98577 7.018035,-6.58598 14.656795,-21.17305 10.838099,-31.17714 -0.478534,-1.10336 -1.132073,-2.16844 -2.011208,-3.14738 z"
         inkscape:export-xdpi="360"
         inkscape:export-ydpi="360" />
      <path
         inkscape:connector-curvature="0"
         style="fill:#00a9a1"
         id="path4302"
         d="m 342.61927,481.65415 c -4.45309,-0.87914 -4.01831,3.6724 -11.25647,9.99177 -9.87693,8.63274 -17.34752,2.56767 -17.12603,-10.76973 -0.8012,-1.33853 32.29007,-14.0265 33.41394,-17.90809 3.93491,-14.01966 -0.43205,-34.13038 -17.49928,-37.82602 -3.52064,-0.8053 -7.38856,-1.15941 -11.75278,-0.0561 -21.92914,5.23243 -29.84955,62.27771 -14.72653,81.01708 15.32127,18.70245 42.72757,0.83401 48.49458,-20.23513 -0.001,0 -3.77358,-3.19661 -9.54743,-4.21383 z M 317.3363,445.07231 c 2.53486,-6.24007 9.11128,-6.95377 13.1583,-2.24637 1.79382,2.12196 3.11594,4.88105 3.67241,7.61142 0.80667,4.87831 -0.22013,6.76236 -0.22013,6.76236 -1.65846,1.94558 -18.38115,8.70111 -19.02785,8.32238 -0.90512,-0.50041 -0.27755,-13.72708 2.41727,-20.44979 z"
         inkscape:export-xdpi="360"
         inkscape:export-ydpi="360" />
      <path
         inkscape:connector-curvature="0"
         d="m 230.87488,462.46222 c -0.0998,-6.25238 -0.54689,-12.91904 -2.4118,-19.08938 -1.43424,-4.42029 -3.31556,-8.96772 -6.46021,-12.52118 -2.58408,-3.00108 -7.07272,-5.39375 -10.99122,-5.76427 -8.55892,-0.88187 -18.49327,15.02869 -18.49327,15.02869 -0.94613,-0.3883 -3.52201,-15.47441 -12.42956,-15.47441 -6.9237,0 -15.41698,16.01447 -15.41698,16.01447 0,-0.0492 -0.48264,-13.96908 -0.89007,-17.29557 -0.40197,-3.21028 -15.10115,-3.32376 -16.09104,1.41509 -0.13672,13.67512 -4.55153,73.58477 2.64288,83.10895 1.43833,1.94968 14.87282,10.72462 14.72925,5.04101 -0.10117,-4.15777 0.33225,-40.9857 2.76866,-54.88505 0.8053,-4.75799 2.86164,-14.55152 10.2871,-12.96689 7.24226,1.52857 3.37708,42.09727 5.47033,55.77102 0.37188,2.36806 0.92151,6.8526 2.25047,8.9308 1.24145,1.90593 12.43777,6.19496 12.43777,3.22258 0,-4.0689 0.98031,-45.15851 1.2975,-50.15303 0.25295,-5.75881 -0.27481,-13.56574 4.77714,-17.63464 4.37789,-3.52885 8.39074,1.39184 8.93763,5.88048 1.36177,12.27371 0.19825,24.66499 0.76429,36.95646 0.29396,5.9762 0.77385,19.65132 2.7208,21.56272 1.57916,1.71178 14.09897,7.36394 14.09897,3.00929 0.001,-16.82934 0.34181,-30.40601 0.001,-50.15714 z"
         id="path4304"
         style="fill:#00a9a1"
         inkscape:export-xdpi="360"
         inkscape:export-ydpi="360" />
      <path
         inkscape:connector-curvature="0"
         d="m 288.64754,438.11854 c -10.5332,-18.69561 -35.70953,-15.34041 -49.60614,-1.27426 -1.97703,1.99206 -3.19387,105.80373 1.68991,112.58114 1.39732,1.9319 14.69781,6.18401 14.63081,0.47169 0,-1.62427 0.13946,-23.82413 0.37052,-42.06582 3.26087,1.48892 22.73171,-4.04976 30.89549,-21.56818 6.79791,-14.91384 9.58844,-34.79212 2.01941,-48.14457 z m -23.99503,47.80275 c -4.55154,3.94038 -8.26086,4.04566 -8.26086,4.04566 0,0 0.66038,-46.12652 0.69729,-46.15113 0.14219,-0.74651 3.05168,-3.16106 7.44872,-2.63467 2.71943,0.25431 5.1791,1.82116 7.02761,4.02789 8.30597,10.52363 2.13152,33.01881 -6.91276,40.71225 z"
         id="path4306"
         style="fill:#00a9a1"
         inkscape:export-xdpi="360"
         inkscape:export-ydpi="360" />
      <path
         inkscape:connector-curvature="0"
         d="m 135.38696,434.40512 c -3.39075,-6.98522 -8.98549,-11.65024 -17.91219,-12.03717 -8.85834,-0.38145 -19.213802,2.27236 -23.490524,10.98029 -0.354115,0.77249 -0.556466,1.48892 -0.686354,2.10008 -0.36095,1.77878 -0.213289,3.50287 0.706862,5.29942 0,0 4.116755,6.50122 6.390476,4.74158 2.86983,-2.19988 5.44024,-4.74158 8.33605,-6.86764 3.21984,-2.38173 11.2469,-7.63329 14.34506,-2.01941 1.46295,2.51435 1.33442,7.05769 1.01586,9.83591 -0.0273,0.88461 -0.14219,1.84304 -0.31447,2.66338 -21.65158,1.77742 -44.10847,17.6825 -45.838026,40.07786 -0.705495,9.17691 1.476617,20.52089 11.134789,23.94719 10.289836,3.57532 19.582947,-4.63768 25.545477,-12.12604 3.4974,-4.29587 6.57642,-8.9349 9.73748,-13.47687 0,0 -0.51545,20.80116 -0.28986,23.64365 0.76702,6.18949 10.10936,0.15039 11.58871,-0.5633 3.13645,-1.40006 3.33196,-16.43284 3.39076,-17.95457 0.29122,-13.65325 4.19195,-41.94277 -3.6601,-58.24436 z m -25.5072,52.34882 c -0.88734,1.23188 -3.88022,4.48318 -6.7651,6.43149 -3.08038,2.04676 -5.957054,2.43095 -6.029517,-2.77002 0,-3.75717 1.528572,-7.87119 2.949137,-11.31253 2.82881,-6.89088 10.6918,-16.318 19.10169,-15.35545 0,-0.003 -0.22424,10.8586 -9.25621,23.00651 z"
         id="path4308"
         style="fill:#00a9a1"
         inkscape:export-xdpi="360"
         inkscape:export-ydpi="360" />
      <path
         inkscape:connector-curvature="0"
         d="m 398.35748,429.69499 c -0.47853,-1.05004 -1.17719,-2.06454 -2.20262,-2.84386 -2.86983,-2.09324 -6.75962,-1.56276 -9.92341,-0.42794 -5.87503,1.98933 -10.58654,6.53539 -13.98549,11.69535 -0.69865,0.99945 -1.25512,2.05769 -1.75006,3.10363 0.29805,-4.76072 0.62756,-12.90809 -0.7219,-14.7484 -1.99617,-2.76729 -15.84356,-0.7219 -16.1799,1.4944 -0.10118,1.00355 4.01558,72.98454 4.29723,75.09009 0.68088,4.82499 -0.36779,8.9267 4.81678,10.59199 2.13152,0.59885 9.75251,4.04703 10.01091,-1.2223 0.17364,-2.87941 -0.30489,-23.77765 -0.30489,-23.77765 -0.50451,-12.04674 0.62073,-24.63079 6.8444,-35.2351 3.76674,-6.67349 10.50996,-13.68742 18.40302,-14.96442 0.69593,-0.0493 0.99672,-1.82116 1.11021,-2.45146 0.36095,-2.03035 0.36095,-4.37106 -0.41428,-6.30433 z"
         id="path4310"
         style="fill:#00a9a1"
         inkscape:export-xdpi="360"
         inkscape:export-ydpi="360" />
      <path
         inkscape:connector-curvature="0"
         d="m 440.57507,477.82724 c -3.39759,-5.48946 -8.14875,-9.55152 -12.37215,-14.25756 -5.15312,-5.84631 -12.45827,-14.06888 -8.21163,-21.88949 2.26689,-4.11401 6.57505,-5.68223 10.87775,-3.44407 5.86408,2.98468 4.71287,9.46949 1.9866,13.68743 -0.25157,0.38282 2.88487,0.56193 3.02707,0.56193 1.38364,0 2.67158,-0.17774 3.88432,-1.01449 7.41043,-4.80174 5.21191,-16.78559 -0.75198,-22.5526 -2.53487,-2.4952 -6.04866,-4.3902 -9.35738,-5.108 -15.3117,-3.59036 -33.81864,8.37434 -28.16648,25.39372 2.04812,6.11292 5.50724,11.59965 9.799,16.48206 4.55153,4.99315 12.6155,10.98166 13.53702,18.12821 0.8641,6.59966 -5.7465,11.02677 -11.39866,11.76099 -6.84303,0.6549 -13.07627,-4.17145 -15.36913,-10.48399 -1.17856,-3.33606 -2.46103,-3.71615 -4.51325,-0.84632 -4.11949,5.61661 -1.8362,14.64722 2.82471,20.2365 0.41291,0.44024 0.76702,0.85452 1.17993,1.24691 8.62591,8.75033 25.07242,12.41043 35.95974,5.80256 12.13834,-7.31609 14.54331,-21.78694 7.06452,-33.70379 z"
         id="path4312"
         style="fill:#00a9a1"
         inkscape:export-xdpi="360"
         inkscape:export-ydpi="360" />
      <path
         inkscape:connector-curvature="0"
         d="m 457.11181,507.14767 c -0.0328,-6.04866 3.62728,-7.05358 4.51873,-7.05358 0.1709,0 0.48673,0.25431 0.94612,0.31173 1.91277,0.2461 5.40333,0.91741 5.40333,5.46622 0,5.59747 -2.40634,7.66337 -5.57013,7.66337 -3.97319,0.001 -5.29805,-4.67185 -5.29805,-6.38774 z m 1.66394,-4.03882 c 0,0.31036 0.0984,0.71233 0.14765,1.04594 0,0.18594 0.26251,1.90046 0.3131,2.51981 0.0246,0.63303 0.3131,3.57807 0.3131,4.30818 0,0.7137 0.77659,0.9092 1.17035,0.9092 0.38009,0 0.76566,-0.28712 0.76566,-0.59885 0,-0.31172 -0.41154,-2.00436 -0.50724,-3.37297 -0.0957,-1.06508 -0.29123,-4.20563 -0.29123,-4.20563 0.0752,-0.026 2.1616,-0.0943 2.76319,-0.0943 0.11759,0 0.33908,0.0943 0.33908,0.33087 0,0.2502 -1.5026,2.27918 -2.42002,2.85479 -0.34318,0.34044 -0.3924,0.70003 -0.36915,0.96527 0.0259,0.24747 1.06234,1.01723 2.68389,1.33306 1.79655,0.34591 2.93546,0.85589 3.32375,0.85589 0.33498,0 0.54963,-0.59065 0.54963,-0.87914 0,-0.16953 -0.0423,-0.75197 -0.62209,-0.80119 -0.58518,-0.0383 -1.64889,-0.24747 -2.51982,-0.40197 -0.50725,-0.0834 -1.2606,-0.37052 -1.55045,-0.59749 0.84769,-0.71096 1.93327,-2.08367 2.34619,-2.6374 0.21875,-0.30353 0.41427,-0.78479 0.41427,-1.1977 0,-0.39923 -0.61116,-0.67268 -0.99535,-0.73968 -0.4594,-0.0943 -1.33442,-0.15176 -1.95652,-0.15176 -0.63167,0 -1.5026,0 -1.89089,0 -0.43751,-0.0492 -0.80257,-0.026 -1.14028,-0.026 -0.33361,0 -0.55236,0.0834 -0.86682,0.58108 z m -3.17337,4.10308 c 0,2.19169 1.52857,7.63055 6.51489,7.63055 5.0123,0 7.16843,-3.00929 7.16843,-9.30678 0,-4.97265 -4.3861,-6.19769 -6.66118,-6.5313 -0.57971,-0.0902 -1.06372,-0.25158 -1.25376,-0.25158 -0.9475,0 -5.76838,1.70222 -5.76838,8.45911 z"
         id="path4314"
         style="fill:#00a9a1"
         inkscape:export-xdpi="360"
         inkscape:export-ydpi="360" />
      <path
         style="opacity:1;fill:url(#linearGradient4318);fill-opacity:1;fill-rule:evenodd;stroke:none;stroke-width:5;stroke-linecap:butt;stroke-linejoin:round;stroke-miterlimit:4;stroke-dasharray:none;stroke-dashoffset:0;stroke-opacity:1"
         d="m 278.49749,325.01809 c -2.2968,0.003 -4.60535,0.24813 -7.03716,0.73265 -8.97218,1.78766 -16.10883,5.57547 -22.40165,11.8897 -6.82468,6.84794 -10.84615,14.73396 -12.72363,24.9518 -0.91397,4.97402 -0.91782,9.37249 -0.0131,14.64864 2.67168,15.5829 11.7164,27.63294 25.56552,34.06063 2.37269,1.10123 8.71962,3.06428 9.90682,3.06428 0.39899,0 0.49521,-1.00599 0.49521,-5.18042 0,-4.76837 -0.0648,-5.28113 -0.80957,-6.44192 -0.87102,-1.35746 -0.8918,-1.37067 -5.95635,-3.82617 -7.91256,-3.83634 -13.98004,-11.28589 -16.39453,-20.12856 -0.97412,-3.56753 -1.30672,-10.16112 -0.70942,-14.06646 0.97405,-6.36885 3.95174,-12.46645 8.37114,-17.14245 5.74858,-6.08234 12.04723,-8.99335 20.30608,-9.38422 3.46606,-0.16412 4.93354,-0.0588 7.76954,0.55954 11.58762,2.52601 21.04462,12.45826 23.44978,24.62819 0.92077,4.65913 0.74438,11.1573 -0.4194,15.4529 -1.02505,3.78348 -3.10517,8.3498 -5.40063,11.85462 -2.2828,3.48556 -7.98802,9.80191 -11.67689,12.92767 -3.48863,2.95607 -9.71188,7.2492 -13.60347,9.38499 -1.94745,1.06879 -2.86699,1.75493 -2.49271,1.859 1.52394,0.42385 6.5478,0.18114 10.18087,-0.49161 19.21204,-3.55738 32.88036,-18.10789 36.00303,-38.32797 0.70922,-4.59245 0.65717,-8.26822 -0.1864,-13.18845 -1.67694,-9.78086 -5.53165,-17.59559 -12.06431,-24.45654 -6.48397,-6.8098 -13.75282,-10.77973 -23.19383,-12.66909 -2.38337,-0.47697 -4.66801,-0.71435 -6.96483,-0.71075 z"
         id="path4316"
         inkscape:connector-curvature="0"
         inkscape:export-xdpi="360"
         inkscape:export-ydpi="360" />
      <path
         style="opacity:1;fill:#00a9a1;fill-opacity:1;fill-rule:evenodd;stroke:none;stroke-width:5;stroke-linecap:butt;stroke-linejoin:round;stroke-miterlimit:4;stroke-dasharray:none;stroke-dashoffset:0;stroke-opacity:1"
         d="m 469.20787,769.93676 c -1.39628,0.002 -2.79971,0.14363 -4.27806,0.42409 -5.45441,1.03476 -9.79296,3.22728 -13.61852,6.88219 -4.14889,3.96384 -6.59364,8.52855 -7.73501,14.44301 -0.55562,2.87915 -0.55796,5.42514 -0.008,8.47917 1.62418,9.01995 7.12269,15.99496 15.54191,19.71554 1.44242,0.63743 5.30087,1.77372 6.0226,1.77372 0.24256,0 0.30105,-0.58231 0.30105,-2.99862 0,-2.76011 -0.0394,-3.05691 -0.49216,-3.72882 -0.52951,-0.78575 -0.54214,-0.79339 -3.62101,-2.21473 -4.81024,-2.22061 -8.49881,-6.53268 -9.96664,-11.65114 -0.59219,-2.06502 -0.79438,-5.88163 -0.43127,-8.14218 0.59215,-3.68653 2.40236,-7.21604 5.08902,-9.92268 3.49471,-3.52068 7.32381,-5.20568 12.34457,-5.43193 2.1071,-0.095 2.99922,-0.034 4.72329,0.32388 7.0444,1.46215 12.79355,7.2113 14.2557,14.2557 0.55976,2.69687 0.45253,6.45825 -0.25496,8.9447 -0.62315,2.19002 -1.88771,4.83317 -3.28318,6.86189 -1.38777,2.01757 -4.85611,5.6737 -7.09867,7.48301 -2.12082,1.71108 -5.90409,4.1961 -8.26988,5.43237 -1.1839,0.61866 -1.74291,1.01582 -1.51538,1.07606 0.92644,0.24534 3.98057,0.10485 6.1892,-0.28456 11.67947,-2.05914 19.98878,-10.48151 21.88713,-22.18563 0.43115,-2.65828 0.39951,-4.78595 -0.11332,-7.63396 -1.01945,-5.66152 -3.36282,-10.18497 -7.33419,-14.15634 -3.94176,-3.94176 -8.36068,-6.2397 -14.1001,-7.33333 -1.44891,-0.27609 -2.8378,-0.41349 -4.23409,-0.41141 z"
         id="path4354"
         inkscape:connector-curvature="0"
         inkscape:export-xdpi="360"
         inkscape:export-ydpi="360" />
    </g>
  </g>
</svg>
